# xmcd
#
# Track frame offsets:
# 150
# 19036
# 38835
# 55063
# 72319
# 93286
# 109637
# 118531
# 141819
# 162800
# 182733
#
# Disc length: 2600 seconds
#
#
# Revision: 0
# Processed by: cddbd v1.5.1PL0 Copyright (c) Steve Scherf et al.
# Submitted via: FreeRIP 2.51 
#
DISCID=890a260b
DTITLE=Franço Cava - Bossa Jova
DYEAR=2003
DGENRE=Samba
TTITLE0=bela
TTITLE1=chove
TTITLE2=cometa
TTITLE3=lua suburbana
TTITLE4=figa
TTITLE5=penso positivo
TTITLE6=a casa da paz
TTITLE7=pra vocé
TTITLE8=un raggio di sole
TTITLE9=samba é
TTITLE10=umbigo
EXTD=
EXTT0=
EXTT1=
EXTT2=
EXTT3=
EXTT4=
EXTT5=
EXTT6=
EXTT7=
EXTT8=
EXTT9=
EXTT10=
PLAYORDER=
